<?xml version="1.0" ?><!-- Uploaded to: SVG Repo, www.svgrepo.com, Generator: SVG Repo Mixer Tools -->
<svg fill="#000000" width="800px" height="800px" viewBox="0 0 32 32" data-name="Layer 2" id="Layer_2" xmlns="http://www.w3.org/2000/svg"><title/><path d="M29.07,9.46H21.59a4.62,4.62,0,0,0,1-2.79V4.8a.93.93,0,0,0-.93-.93H19.74A4.65,4.65,0,0,0,16,5.76a4.65,4.65,0,0,0-3.73-1.9H10.41a.93.93,0,0,0-.93.93V6.67a4.62,4.62,0,0,0,1,2.79H2.93A.93.93,0,0,0,2,10.4v3.73a.93.93,0,0,0,.93.93h.93V27.2a.93.93,0,0,0,.93.93H27.2a.93.93,0,0,0,.93-.93V15.06h.93a.93.93,0,0,0,.93-.93V10.4A.93.93,0,0,0,29.07,9.46ZM19.74,5.73h.93v.93a2.8,2.8,0,0,1-2.75,2.79h-1V8.53A2.8,2.8,0,0,1,19.74,5.73Zm-8.4.93V5.73h.93a2.8,2.8,0,0,1,2.8,2.8v.93h-1A2.8,2.8,0,0,1,11.34,6.67Zm7.47,19.6V25.4l7.46-5.32v3.31l-4,2.88ZM5.73,17.94l4-2.88h3.44v.85L5.73,21.25Zm0-2.29v-.58h.82Zm9.34-.58h1.87v11.2H15.07Zm-1.87,11.2H9.76l3.44-2.46Zm13.06-8.48-7.46,5.32V19.8l6.64-4.74h.82Zm-7.46-.28V15.06h3.42Zm-13.07,6,7.47-5.34v3.31L6.55,26.27H5.73Zm19.71,2.72.82-.59v.59Zm2.69-13.07H3.87V11.33H28.13Z"/></svg>